<?xml version="1.0" standalone="no"?>
<!DOCTYPE svg PUBLIC "-//W3C//DTD SVG 20010904//EN"
 "http://www.w3.org/TR/2001/REC-SVG-20010904/DTD/svg10.dtd">
<svg version="1.0" xmlns="http://www.w3.org/2000/svg"
 width="4050.000000pt" height="1040.000000pt" viewBox="0 0 4050.000000 1040.000000"
 preserveAspectRatio="xMidYMid meet">
<metadata>
Created by potrace 1.16, written by Peter Selinger 2001-2019
</metadata>
<g transform="translate(0.000000,1040.000000) scale(0.100000,-0.100000)"
fill="#FFFFFF" stroke="none">
<path d="M0 9008 l0 -1392 37 59 c24 37 43 87 54 135 41 182 128 456 158 494
5 6 25 55 46 108 24 63 66 143 120 225 101 154 199 293 241 342 17 20 49 62
71 94 22 32 121 141 219 244 169 175 250 245 442 381 41 29 93 68 116 86 69
56 288 197 346 223 30 13 84 42 120 63 57 34 281 134 395 177 22 8 81 23 130
33 148 30 281 67 332 94 l48 25 -1437 1 -1438 0 0 -1392z"/>
<path d="M8002 10355 c70 -97 78 -120 78 -230 0 -148 -37 -203 -147 -220 -27
-4 -876 -6 -1888 -4 -3047 5 -3008 5 -3100 -13 -44 -10 -118 -25 -165 -34 -86
-17 -112 -24 -255 -74 -112 -39 -473 -231 -576 -307 -30 -22 -79 -53 -109 -68
-30 -15 -80 -47 -110 -70 -30 -24 -66 -48 -80 -55 -38 -20 -171 -123 -205
-160 -16 -18 -52 -49 -80 -70 -64 -48 -202 -183 -240 -235 -16 -22 -43 -56
-61 -75 -18 -19 -46 -57 -63 -85 -17 -27 -42 -70 -57 -94 -15 -24 -45 -84 -66
-134 -22 -50 -48 -103 -58 -117 -64 -90 -188 -376 -225 -521 -9 -33 -25 -77
-35 -98 -20 -36 -25 -76 -49 -346 -15 -164 -21 -1489 -21 -4385 1 -1504 0
-2786 0 -2847 l-2 -113 149 0 148 0 1 617 c4 4676 19 6521 54 6778 5 39 14
113 20 166 8 69 23 133 56 225 25 71 56 161 69 199 33 102 133 303 175 355 20
25 51 70 69 100 18 30 55 78 81 105 26 28 65 75 86 106 22 31 67 79 101 107
34 29 74 67 88 87 15 19 48 48 75 64 26 16 69 49 97 73 27 24 76 63 109 86 34
24 70 55 82 71 15 21 89 62 254 144 265 130 390 182 498 207 41 10 156 40 255
66 l180 48 775 3 c426 2 1376 -1 2110 -6 866 -6 1367 -6 1425 1 100 11 434 -4
499 -23 101 -28 130 -81 131 -231 0 -93 -3 -110 -21 -135 -46 -61 -66 -66
-318 -75 -304 -11 -3158 -16 -3441 -6 -404 14 -1304 -22 -1425 -58 -30 -8 -87
-24 -127 -33 -39 -10 -88 -27 -110 -38 -21 -11 -56 -26 -78 -33 -69 -22 -169
-76 -226 -122 -29 -25 -76 -57 -102 -73 -27 -15 -79 -55 -116 -89 -104 -94
-216 -186 -270 -222 -26 -18 -60 -52 -74 -76 -14 -24 -48 -63 -76 -86 -35 -30
-63 -65 -86 -112 -19 -38 -54 -100 -78 -137 -103 -162 -190 -450 -217 -723 -6
-63 -15 -142 -21 -175 -23 -146 -31 -998 -34 -3465 -1 -1416 2 -2795 7 -3064
9 -473 8 -513 -19 -608 -4 -17 9 -18 173 -18 l177 0 -8 58 c-18 138 -3 4110
16 4271 22 178 29 184 289 193 300 12 5651 10 5746 -1 157 -19 170 -39 160
-245 -8 -152 -17 -181 -69 -220 -40 -30 -158 -35 -567 -24 -212 6 -500 6 -785
-1 -474 -10 -3976 1 -4006 13 -9 4 -60 3 -113 -3 -126 -13 -153 -29 -186 -106
l-25 -60 5 -975 c7 -1293 6 -1432 -3 -2145 -9 -607 -9 -622 -43 -737 -5 -17 8
-18 185 -18 105 0 191 3 191 7 0 4 -6 34 -14 67 -31 129 -37 538 -31 1974 4
768 10 1445 15 1504 10 112 26 160 61 178 37 21 2078 30 4340 21 1008 -4 988
-3 1033 -64 19 -26 21 -42 21 -180 0 -274 1 -273 -595 -258 -204 6 -961 8
-1715 5 -948 -4 -1484 -2 -1800 7 -247 6 -532 12 -632 13 -169 1 -183 0 -210
-20 -42 -31 -50 -57 -63 -189 -8 -89 -9 -208 -1 -455 6 -184 11 -765 11 -1291
0 -582 4 -996 10 -1057 10 -94 9 -104 -15 -177 -14 -43 -25 -79 -25 -81 0 -2
8489 -4 18865 -4 l18865 0 0 4880 c0 3072 -4 4880 -9 4880 -29 0 -102 -136
-132 -247 -12 -43 -34 -109 -49 -148 -24 -61 -89 -255 -199 -595 -62 -192 -99
-316 -110 -370 -6 -30 -27 -93 -45 -140 -21 -51 -41 -127 -51 -190 -9 -58 -27
-145 -40 -195 -13 -49 -31 -139 -40 -200 -8 -60 -22 -135 -29 -165 -26 -106
-87 -316 -116 -395 -16 -44 -34 -102 -41 -130 -7 -27 -22 -70 -34 -95 -13 -25
-27 -72 -33 -105 -5 -33 -21 -100 -35 -150 -14 -49 -32 -130 -41 -178 -9 -49
-25 -114 -36 -145 -10 -31 -24 -84 -30 -117 -6 -33 -18 -78 -26 -100 -7 -22
-18 -70 -24 -107 -6 -37 -19 -88 -30 -114 -38 -88 -141 -454 -191 -675 -10
-47 -44 -171 -75 -275 -31 -104 -65 -225 -76 -269 -10 -44 -32 -123 -47 -175
-16 -52 -38 -135 -50 -185 -12 -49 -37 -139 -56 -200 -18 -60 -52 -168 -74
-240 -35 -116 -85 -261 -136 -395 -9 -25 -26 -90 -36 -145 -18 -90 -44 -195
-113 -445 -13 -47 -29 -105 -35 -130 -44 -174 -102 -381 -115 -412 -9 -20 -34
-123 -56 -230 -90 -431 -95 -449 -155 -565 -65 -126 -90 -209 -110 -353 -7
-58 -27 -148 -44 -200 -16 -52 -37 -124 -46 -160 -31 -121 -107 -365 -126
-402 -28 -54 -61 -62 -243 -54 -83 4 -655 8 -1271 9 l-1120 3 -42 22 c-48 25
-76 71 -88 142 -11 69 -101 416 -130 500 -14 41 -30 106 -36 145 -5 38 -18 84
-29 102 -11 19 -29 69 -40 111 -10 43 -32 107 -48 142 -16 36 -33 81 -37 100
-21 103 -50 209 -65 241 -10 19 -24 64 -30 99 -6 36 -22 90 -35 120 -12 30
-26 72 -29 93 -4 21 -20 71 -36 111 -16 39 -39 116 -50 171 -12 54 -35 133
-50 175 -15 42 -31 103 -35 136 -4 32 -16 84 -26 114 -18 56 -53 182 -94 346
-13 50 -40 133 -60 185 -20 52 -43 122 -50 155 -8 34 -22 79 -32 100 -11 22
-43 113 -72 204 -188 587 -220 692 -246 800 -10 41 -53 183 -96 315 -42 132
-83 269 -90 304 -16 81 -52 127 -92 117 -35 -8 -50 -40 -76 -161 -38 -171 -72
-298 -98 -360 -14 -33 -45 -134 -68 -225 -57 -219 -89 -322 -124 -411 -16 -41
-39 -110 -51 -154 -12 -44 -35 -116 -51 -160 -15 -44 -35 -115 -43 -157 -8
-42 -22 -90 -30 -106 -8 -16 -20 -60 -27 -98 -6 -38 -23 -96 -36 -129 -22 -54
-46 -121 -157 -440 -18 -49 -42 -109 -54 -133 -13 -24 -27 -69 -33 -100 -6
-31 -28 -102 -49 -157 -21 -55 -61 -189 -89 -297 -28 -109 -59 -219 -70 -245
-10 -26 -22 -73 -26 -103 -4 -30 -18 -84 -32 -120 -14 -36 -47 -129 -74 -208
-27 -79 -58 -160 -68 -180 -10 -20 -24 -57 -31 -82 -6 -25 -25 -71 -41 -103
-16 -32 -34 -82 -40 -112 -5 -30 -23 -83 -39 -118 -39 -87 -159 -445 -171
-515 -19 -101 -60 -155 -134 -178 -18 -6 -452 -7 -1069 -4 -957 5 -1216 2
-1382 -16 -60 -6 -62 -6 -102 31 -45 40 -75 106 -86 190 -4 28 -18 88 -31 135
-14 47 -34 134 -45 194 -12 60 -34 141 -50 181 -16 39 -32 89 -36 111 -4 21
-16 62 -27 89 -21 54 -52 166 -93 335 -14 58 -41 157 -60 220 -18 63 -36 133
-40 155 -11 67 -62 277 -79 325 -8 24 -25 96 -36 159 -11 63 -32 145 -45 182
-13 37 -29 94 -35 126 -5 32 -18 87 -28 123 -10 36 -38 144 -61 240 -24 96
-60 218 -80 270 -22 54 -40 123 -44 161 -4 36 -18 89 -31 116 -13 28 -29 77
-35 110 -15 74 -49 196 -110 398 -26 88 -58 194 -70 235 -12 41 -44 154 -71
250 -28 96 -69 234 -91 305 -47 150 -81 276 -108 392 -10 46 -30 118 -44 160
-14 43 -35 131 -46 195 -11 64 -25 130 -31 145 -11 30 -50 174 -76 283 -24
104 -102 356 -143 465 -20 55 -40 125 -44 155 -4 30 -18 80 -32 110 -13 30
-35 98 -49 150 -13 52 -47 167 -75 255 -29 88 -61 192 -71 230 -11 39 -29 99
-40 135 -11 36 -26 92 -35 125 -8 33 -27 89 -41 125 -14 36 -41 119 -59 185
-18 66 -40 140 -49 165 -9 25 -23 79 -30 120 -32 171 -115 485 -175 655 -11
33 -25 92 -30 131 -14 108 -42 204 -133 464 -25 69 -55 166 -68 216 -27 108
-21 154 24 188 32 24 62 24 1067 7 534 -9 1242 -2 1402 15 48 5 64 2 91 -15
56 -35 87 -90 98 -173 19 -154 42 -266 70 -348 16 -46 29 -105 29 -131 0 -25
9 -71 19 -102 11 -31 23 -78 26 -104 4 -26 13 -70 20 -98 7 -27 23 -99 35
-160 11 -60 32 -157 46 -215 52 -226 63 -277 74 -341 5 -36 19 -93 30 -125 25
-70 110 -415 110 -443 0 -10 10 -50 21 -87 12 -38 29 -105 39 -149 9 -44 29
-120 43 -170 47 -165 106 -389 132 -505 15 -63 31 -133 36 -155 9 -39 110
-444 144 -575 9 -36 27 -108 40 -160 13 -52 30 -111 39 -131 8 -19 29 -91 46
-158 17 -67 41 -151 55 -186 13 -35 26 -85 30 -112 4 -26 13 -72 22 -102 8
-30 23 -91 33 -135 36 -159 99 -382 129 -456 17 -41 30 -88 31 -103 0 -16 13
-68 29 -115 35 -103 87 -290 97 -347 11 -65 44 -144 65 -155 56 -30 80 27 172
405 8 33 24 85 35 115 11 30 26 82 35 115 8 33 30 105 50 160 56 160 137 413
137 428 0 7 14 35 30 61 17 26 37 76 45 110 8 35 27 89 41 122 14 32 43 124
64 204 47 182 103 371 140 475 58 165 101 282 121 329 37 87 120 358 140 454
10 51 32 124 48 160 16 37 41 118 55 180 14 63 35 135 46 160 12 26 28 77 35
115 8 37 26 89 39 115 13 26 27 63 30 82 6 32 116 380 196 620 71 214 83 249
116 335 18 50 41 128 49 175 17 95 35 127 86 151 31 15 138 17 1079 23 816 4
1050 3 1070 -7 32 -16 84 -86 103 -139 17 -46 89 -286 131 -433 14 -49 49
-184 77 -300 28 -115 63 -244 79 -285 15 -41 37 -111 48 -155 11 -44 27 -100
35 -125 8 -25 34 -106 57 -180 24 -74 66 -200 95 -280 29 -80 57 -169 64 -198
6 -30 22 -72 35 -95 13 -23 31 -76 40 -118 9 -42 31 -112 47 -155 17 -44 42
-131 56 -194 14 -63 29 -123 35 -133 5 -10 13 -43 18 -74 5 -31 21 -80 34
-107 38 -79 95 -223 121 -306 12 -41 45 -142 73 -225 88 -266 112 -343 126
-412 21 -104 90 -354 181 -658 13 -44 27 -100 31 -125 3 -25 15 -67 25 -95 10
-27 30 -95 44 -150 29 -110 46 -145 74 -145 41 0 54 32 120 285 27 105 58 217
70 250 11 33 27 89 36 125 8 36 35 142 60 235 25 94 56 211 69 260 13 50 31
105 40 123 10 18 23 68 31 110 7 42 25 109 40 147 14 39 37 117 51 175 14 57
38 136 53 175 29 74 63 212 80 330 6 39 20 97 31 130 12 33 34 115 50 182 16
68 36 138 44 157 8 19 24 69 35 111 12 42 30 93 40 114 11 20 24 61 29 91 6
30 29 109 51 175 53 159 88 297 100 395 6 45 20 101 30 126 11 25 25 73 31
107 6 34 17 82 25 107 26 83 123 454 130 500 4 25 18 65 31 91 13 25 28 76 33
115 5 38 23 126 40 195 16 69 44 195 60 280 17 85 37 186 45 224 8 39 19 97
25 130 22 127 71 325 87 356 9 18 20 62 24 97 6 49 15 73 38 101 45 57 70 65
162 52 53 -7 98 -7 140 0 42 7 87 6 139 -1 51 -7 389 -9 1016 -6 517 3 960 6
985 8 25 1 71 -2 103 -6 l57 -9 0 177 0 176 -16265 0 -16266 0 33 -45z m13923
-79 c44 -7 154 -25 245 -40 91 -15 192 -33 225 -41 33 -8 87 -19 120 -25 33
-7 83 -18 110 -25 28 -8 75 -17 105 -20 50 -6 193 -41 518 -125 71 -18 130
-40 158 -59 25 -16 68 -35 96 -41 29 -6 74 -23 102 -39 28 -16 125 -64 216
-107 91 -42 183 -88 204 -102 21 -13 64 -33 95 -43 31 -11 72 -30 91 -43 19
-12 57 -30 85 -40 55 -18 217 -114 340 -200 221 -155 285 -206 371 -296 29
-30 58 -61 66 -68 229 -224 330 -327 360 -367 20 -28 48 -61 63 -75 15 -14 41
-45 58 -70 16 -25 44 -60 61 -78 17 -18 49 -62 71 -96 22 -35 74 -110 115
-166 41 -55 89 -122 105 -148 17 -26 46 -70 66 -97 60 -82 164 -259 189 -322
13 -32 44 -105 70 -163 26 -58 55 -139 65 -180 10 -41 40 -133 65 -205 26 -71
53 -161 59 -200 7 -38 21 -94 32 -123 22 -61 96 -349 111 -432 5 -30 16 -81
24 -114 8 -32 19 -102 24 -156 5 -54 14 -127 20 -162 50 -316 52 -641 9 -1323
-12 -183 -43 -375 -89 -550 -16 -60 -43 -164 -59 -230 -32 -132 -138 -396
-256 -640 -103 -213 -135 -283 -135 -293 0 -5 -16 -33 -36 -61 -19 -29 -62
-98 -96 -154 -33 -56 -75 -120 -93 -142 -18 -22 -45 -65 -60 -95 -15 -30 -47
-76 -70 -101 -24 -25 -50 -59 -58 -75 -8 -16 -27 -39 -41 -52 -15 -12 -42 -46
-60 -75 -19 -28 -51 -68 -71 -87 -21 -19 -56 -60 -78 -90 -88 -118 -250 -286
-487 -505 -200 -185 -408 -344 -585 -449 -189 -111 -210 -123 -390 -211 -99
-49 -203 -103 -232 -121 -81 -52 -347 -178 -468 -224 -60 -22 -159 -49 -220
-60 -60 -11 -155 -31 -210 -44 -55 -13 -134 -29 -175 -35 -102 -14 -201 -28
-350 -51 -161 -25 -294 -39 -450 -49 -153 -9 -691 5 -935 24 -248 21 -497 44
-515 50 -8 2 -52 9 -97 14 -46 6 -100 19 -120 30 -21 10 -72 26 -113 34 -41 9
-111 31 -155 49 -44 19 -107 42 -140 52 -93 28 -167 56 -200 76 -16 10 -59 28
-95 40 -36 12 -85 34 -110 50 -25 16 -68 39 -95 51 -28 12 -86 45 -130 74
-133 87 -268 171 -305 190 -19 10 -80 48 -135 84 -56 36 -129 82 -164 101 -34
19 -85 53 -113 75 -27 22 -72 56 -100 76 -27 20 -66 53 -86 72 -21 19 -53 44
-72 55 -53 31 -223 192 -332 314 -31 34 -87 97 -125 138 -95 106 -194 228
-222 275 -13 22 -39 56 -56 75 -18 19 -49 60 -69 90 -20 30 -55 83 -78 117
-76 109 -175 267 -201 318 -14 28 -38 67 -55 87 -16 21 -40 64 -52 95 -13 32
-32 70 -42 85 -29 42 -106 220 -153 353 -23 66 -60 158 -82 205 -23 47 -51
121 -63 165 -12 44 -26 88 -31 97 -5 9 -18 59 -28 110 -11 51 -38 181 -61 288
-55 261 -87 474 -100 655 -6 83 -15 197 -21 255 -12 129 -3 516 17 700 8 74
19 180 24 235 5 55 18 147 29 205 11 58 27 146 36 195 9 50 25 128 35 175 48
210 210 679 273 792 20 36 46 91 58 124 12 32 33 77 47 99 14 22 36 64 49 94
14 30 36 69 50 85 14 17 33 47 40 66 15 36 75 134 150 243 23 34 56 87 74 117
18 30 59 90 93 134 34 43 80 104 104 135 24 31 65 79 92 106 26 28 57 69 69
92 11 23 37 54 56 69 19 14 48 44 64 66 16 22 44 51 62 64 18 13 51 46 74 73
22 27 67 71 100 97 33 26 96 80 140 119 93 83 249 196 319 232 27 14 69 44 95
68 65 61 381 239 526 296 28 11 118 54 200 96 83 41 249 115 370 164 121 48
258 104 305 123 47 20 96 36 110 36 14 0 62 14 108 30 46 16 104 32 130 35 26
4 72 13 102 20 60 15 274 47 440 66 228 26 938 36 1065 15z m-10101 -207 c14
-11 32 -30 39 -42 9 -17 12 -788 12 -3709 l0 -3688 27 -26 27 -27 2133 -4
c1173 -1 2143 -5 2155 -8 50 -12 68 -105 47 -239 -20 -127 -33 -555 -39 -1286
-5 -610 -6 -625 -25 -645 -20 -20 -29 -20 -1463 -22 -793 0 -1557 -4 -1697 -7
-140 -4 -858 -2 -1595 3 -737 6 -1457 11 -1600 12 -143 1 -312 -2 -375 -5
-105 -7 -118 -6 -147 13 -58 37 -66 59 -64 180 1 60 7 200 13 312 7 142 11
1547 13 4634 2 3366 5 4440 14 4473 7 24 21 52 32 63 23 23 2 23 284 -1 258
-21 1930 2 2035 29 67 17 145 13 174 -10z m-6924 -1228 c492 -6 1307 -13 1810
-16 1094 -7 1274 -12 1314 -38 47 -31 61 -78 61 -208 -1 -178 -23 -198 -252
-225 -167 -21 -199 -21 -1328 -12 -495 4 -1460 8 -2145 9 l-1245 1 -133 -45
c-153 -53 -151 -52 -297 -141 -60 -38 -135 -81 -165 -96 -69 -36 -210 -186
-299 -319 -48 -73 -71 -119 -93 -191 -16 -52 -40 -129 -53 -172 -45 -146 -48
-195 -51 -1113 -2 -478 -4 -886 -4 -905 0 -44 29 -74 88 -91 58 -17 -64 -17
2767 -1 1249 7 2315 10 2370 7 55 -4 178 -7 274 -9 l174 -2 33 -38 c43 -49 48
-81 41 -230 -5 -96 -10 -125 -25 -146 -38 -50 -49 -52 -297 -44 -257 7 -4254
6 -4266 -1 -4 -3 -261 -5 -571 -6 -324 0 -614 -5 -683 -11 -66 -6 -152 -11
-192 -12 -63 -1 -75 2 -98 24 -58 54 -56 16 -52 1342 3 1052 6 1221 19 1273
43 166 52 196 83 265 18 41 45 105 60 142 15 37 50 95 77 129 27 33 57 74 67
90 25 41 188 205 323 325 106 95 203 167 301 224 24 14 61 40 83 59 67 56 295
129 520 165 87 14 170 27 184 30 26 5 175 3 1600 -13z m3015 -780 c103 -20
169 -61 180 -111 7 -32 -17 -148 -41 -205 -20 -44 -64 -90 -115 -117 -41 -21
-60 -23 -254 -29 -341 -9 -3586 -9 -3885 1 -182 5 -304 14 -360 25 l-84 17
-66 -26 c-36 -14 -90 -35 -121 -46 -43 -16 -80 -42 -150 -107 -108 -99 -130
-128 -175 -232 -24 -56 -39 -118 -58 -236 -23 -145 -25 -191 -27 -485 -1 -179
-1 -337 0 -352 2 -43 55 -96 115 -113 43 -13 70 -13 152 -5 65 7 831 10 2239
9 2526 -1 2397 0 2433 -26 53 -38 62 -74 62 -235 0 -143 -1 -147 -26 -177 -14
-18 -35 -36 -46 -42 -50 -27 -4690 -26 -5020 1 -66 6 -131 7 -144 4 -40 -10
-92 5 -130 38 -72 64 -69 32 -70 638 -3 862 17 1087 110 1240 19 30 48 84 66
120 24 48 61 93 149 180 100 100 130 123 221 172 95 51 118 59 240 82 74 14
149 27 165 29 69 9 4593 -3 4640 -12z"/>
<path d="M21390 7923 c-25 -2 -88 -9 -140 -17 -52 -8 -120 -17 -150 -21 -30
-3 -83 -17 -117 -31 -34 -13 -74 -24 -90 -24 -52 0 -183 -40 -262 -79 -42 -21
-106 -48 -142 -60 -36 -12 -86 -34 -111 -50 -24 -15 -74 -42 -109 -59 -36 -17
-83 -46 -106 -64 -136 -111 -228 -195 -389 -356 -396 -395 -585 -722 -708
-1222 -72 -294 -86 -418 -89 -782 -1 -238 -1 -246 30 -383 17 -77 34 -169 38
-205 8 -82 69 -329 97 -395 11 -27 38 -93 60 -145 21 -52 49 -110 63 -130 13
-19 36 -62 50 -95 15 -33 36 -70 48 -83 12 -12 38 -51 57 -86 40 -73 100 -153
181 -240 31 -34 73 -84 95 -111 21 -28 112 -120 202 -205 120 -114 176 -160
213 -175 27 -12 67 -39 89 -60 22 -22 73 -56 113 -76 39 -20 125 -64 191 -99
65 -34 162 -77 215 -95 53 -19 155 -54 226 -79 72 -25 147 -46 168 -46 20 0
78 -9 127 -20 186 -41 394 -42 758 -1 161 18 211 28 295 58 56 19 138 45 183
57 55 15 96 34 130 59 27 21 98 69 158 108 60 39 145 100 190 135 44 36 116
93 159 127 42 34 91 79 107 99 17 21 56 55 88 77 91 62 242 242 362 431 89
140 103 170 116 250 3 25 24 83 45 129 35 76 69 177 128 386 41 146 60 235 83
390 20 141 23 197 22 470 0 295 -1 316 -27 446 -14 74 -42 191 -62 260 -19 68
-43 151 -52 184 -50 179 -207 546 -267 624 -14 19 -32 55 -41 81 -9 26 -29 60
-46 76 -17 16 -42 51 -56 79 -14 27 -56 84 -92 125 -37 41 -87 99 -111 128
-23 29 -77 80 -119 111 -42 32 -82 66 -90 75 -7 9 -48 35 -90 57 -42 23 -91
53 -109 66 -18 14 -65 40 -105 60 -40 19 -97 50 -127 69 -30 19 -86 44 -125
55 -38 11 -110 40 -160 64 -122 59 -354 122 -535 146 -132 17 -324 22 -460 12z"/>
<path d="M2 7550 c0 -14 2 -19 5 -12 2 6 2 18 0 25 -3 6 -5 1 -5 -13z"/>
<path d="M0 15 c0 -8 7 -15 16 -15 14 0 14 3 4 15 -16 19 -20 19 -20 0z"/>
</g>
</svg>
